<?xml version="1.0" encoding="utf-8"?>
<!-- Generator: Adobe Illustrator 22.0.0, SVG Export Plug-In . SVG Version: 6.00 Build 0)  -->
<svg version="1.1" id="Capa_1" xmlns="http://www.w3.org/2000/svg" xmlns:xlink="http://www.w3.org/1999/xlink" x="0px" y="0px"
	 viewBox="0 0 512 512" style="enable-background:new 0 0 512 512;" xml:space="preserve">
<style type="text/css">
	.st0{fill:#F1F1F0;}
	.st1{fill:#0B27D1;}
	.st2{fill:#13D8D8;}
</style>
<path class="st0" d="M484.4,215.9C484.4,100.8,391.1,7.5,276,7.5S67.6,100.8,67.6,215.9l-40.1,80.2l40.1,24v120.2h80.2v64.1h256.5
	V380.2C453.1,342.1,484.4,282.7,484.4,215.9z"/>
<g>
	<path class="st1" d="M278.9,56.8c-9.1-4.6-19.4-7.2-30.3-7.2c-37.2,0-67.5,30.3-67.5,67.5c0,8.3,6.7,15,15,15c8.3,0,15-6.7,15-15
		c0-20.7,16.8-37.5,37.5-37.5s37.5,16.8,37.5,37.5s-16.8,37.5-37.5,37.5c-8.3,0-15,6.7-15,15v45c0,8.3,6.7,15,15,15s15-6.7,15-15
		v-31.7c30-6.8,52.5-33.7,52.5-65.8c0-14-4.2-27-11.6-37.8C295.8,66.5,278.9,56.8,278.9,56.8z"/>
	<circle class="st1" cx="248.7" cy="267" r="15"/>
</g>
<g>
	<path class="st1" d="M392,126.7c-30,0-54.4,24.4-54.4,54.4c0,6.7,5.4,12.1,12.1,12.1s12.1-5.4,12.1-12.1
		c0-16.7,13.6-30.2,30.2-30.2c16.7,0,30.2,13.5,30.2,30.2s-13.6,30.2-30.2,30.2c-6.7,0-12.1,5.4-12.1,12.1v36.2
		c0,6.7,5.4,12.1,12.1,12.1s12.1-5.4,12.1-12.1V234c24.2-5.5,42.3-27.2,42.3-53C446.4,151.1,422,126.7,392,126.7z"/>
	<ellipse class="st1" cx="392" cy="301.8" rx="12.1" ry="12.1"/>
	<path class="st1" d="M149.4,206.9c-27.4,0-49.8,22.3-49.8,49.7c0,6.1,4.9,11,11.1,11s11.1-4.9,11.1-11c0-15.2,12.4-27.6,27.6-27.6
		s27.6,12.4,27.6,27.6c0,15.2-12.4,27.6-27.6,27.6c-6.1,0-11.1,4.9-11.1,11v33.1c0,6.1,4.9,11,11.1,11s11.1-4.9,11.1-11V305
		c22.1-5,38.7-24.9,38.7-48.5C199.2,229.2,176.9,206.9,149.4,206.9z"/>
	<ellipse class="st1" cx="149.4" cy="367" rx="11.1" ry="11"/>
</g>
<path class="st2" d="M428.7,63.2C387.9,22.5,333.7,0,276,0S164.1,22.5,123.4,63.2C83,103.6,60.6,157.1,60.1,214.1l-39.3,78.6
	c-1.8,3.5-0.5,7.8,2.9,9.8l36.4,21.9v116c0,4.1,3.4,7.5,7.5,7.5h72.6v56.6c0,4.1,3.4,7.5,7.5,7.5s7.5-3.4,7.5-7.5v-64.1
	c0-4.1-3.4-7.5-7.5-7.5H75.1V320.1c0-2.6-1.4-5.1-3.6-6.4l-34.1-20.5l37-73.9c0.5-1,0.8-2.2,0.8-3.4C75.1,105.1,165.3,15,276,15
	s200.9,90.1,200.9,200.9c0,62.2-28.2,120-77.3,158.4c-1.8,1.4-2.9,3.6-2.9,5.9v124.3c0,4.1,3.4,7.5,7.5,7.5s7.5-3.4,7.5-7.5V383.8
	c51-41.2,80.2-102.2,80.2-167.9C492,158.2,469.5,104,428.7,63.2z"/>
<path class="st2" d="M300.3,73.1c-3.4,2.3-4.3,7-2,10.4c6.7,9.9,10.3,21.5,10.3,33.5c0,27.7-19.7,52.3-46.7,58.5
	c-3.4,0.8-5.9,3.8-5.9,7.3v31.7c0,4.1-3.4,7.5-7.5,7.5s-7.5-3.4-7.5-7.5v-45c0-4.1,3.5-7.5,7.6-7.5c24.8,0,45-20.2,45-45
	s-20.2-45-45-45s-45,20.2-45,45c0,4.1-3.3,7.5-7.5,7.5s-7.5-3.4-7.5-7.5c0-33.1,26.9-59.9,59.9-59.9c9.5,0,18.5,2.1,26.9,6.4
	c3.7,1.9,8.2,0.4,10.1-3.3c1.9-3.7,0.4-8.2-3.3-10.1c-10.5-5.3-21.8-8-33.7-8c-41.3,0-75,33.6-75,75c0,12.4,10.1,22.5,22.5,22.5
	s22.5-10.1,22.5-22.5c0-16.5,13.4-30,30-30s30,13.4,30,30s-13.5,30-30.1,30c-12.4,0-22.6,10.1-22.6,22.5v45
	c0,12.4,10.1,22.5,22.5,22.5c12.4,0,22.5-10.1,22.5-22.5v-25.9c14-4.4,26.6-13,35.9-24.5c10.7-13.3,16.7-30,16.7-47.1
	c0-15-4.4-29.5-12.9-42C308.4,71.7,303.8,70.8,300.3,73.1z"/>
<path class="st2" d="M248.7,244.5c-12.4,0-22.5,10.1-22.5,22.5s10.1,22.5,22.5,22.5c12.4,0,22.5-10.1,22.5-22.5
	C271.2,254.6,261.1,244.5,248.7,244.5z M248.7,274.5c-4.1,0-7.5-3.4-7.5-7.5s3.4-7.5,7.5-7.5c4.1,0,7.5,3.4,7.5,7.5
	S252.8,274.5,248.7,274.5z"/>
<path class="st2" d="M392,156.3c12.5,0,22.7,10.2,22.7,22.7s-10.3,22.7-22.8,22.7c-10.8,0-19.7,8.8-19.7,19.6v36.3
	c0,10.8,8.7,19.6,19.5,19.6s19.5-8.8,19.5-19.6v-19.9c11-3.7,21.3-10.6,28.7-19.9c8.9-11,13.8-24.8,13.8-38.9
	c0-34.1-27.7-61.9-61.9-61.9s-61.9,27.8-61.9,61.9c0,10.8,8.8,19.6,19.6,19.6s19.6-8.8,19.6-19.6C369.3,166.5,379.5,156.3,392,156.3
	z M354.3,179c0,2.5-2.1,4.6-4.6,4.6s-4.6-2.1-4.6-4.6c0-25.9,21-46.9,46.9-46.9s46.9,21,46.9,46.9c0,21.7-15.5,40.9-36.6,45.7
	c-3.4,0.8-6,3.8-6,7.3v25.5c0,2.5-2,4.6-4.5,4.6s-4.5-2.1-4.5-4.6v-36.3c0-2.5,2.2-4.6,4.7-4.6c20.8,0,37.8-16.9,37.8-37.7
	s-16.9-37.7-37.7-37.7S354.3,158.2,354.3,179z"/>
<path class="st2" d="M411.6,299.9c0-10.8-8.8-19.6-19.6-19.6s-19.6,8.8-19.6,19.6s8.8,19.6,19.6,19.6
	C402.8,319.5,411.6,310.7,411.6,299.9z M392,304.5c-2.5,0-4.6-2.1-4.6-4.6s2.1-4.6,4.6-4.6s4.6,2.1,4.6,4.6
	C396.6,302.4,394.6,304.5,392,304.5z"/>
<path class="st2" d="M149.4,197.4c-31.6,0-57.3,25.7-57.3,57.3c0,10.2,8.3,18.6,18.6,18.6s18.6-8.3,18.6-18.6
	c0-11.1,9-20.1,20.1-20.1c11.1,0,20.1,9,20.1,20.1s-9.1,20.1-20.2,20.1c-10.2,0-18.6,8.3-18.6,18.6v33.2c0,10.2,8.3,18.6,18.5,18.6
	s18.5-8.3,18.5-18.6v-17.7c23-7.9,38.8-29.7,38.8-54.2C206.6,223,181,197.4,149.4,197.4z M158.7,295.8c-3.4,0.8-5.9,3.8-5.9,7.3
	v23.4c0,2-1.6,3.5-3.5,3.5s-3.5-1.6-3.5-3.5v-33.2c0-2,1.6-3.5,3.6-3.5c19.4,0,35.2-15.8,35.2-35.2s-15.8-35.2-35.1-35.2
	s-35.1,15.8-35.1,35.2c0,2-1.6,3.5-3.5,3.5s-3.5-1.6-3.5-3.5c0-23.3,18.9-42.2,42.2-42.2c23.3,0,42.2,18.9,42.2,42.2
	C191.6,274.1,177.8,291.5,158.7,295.8z"/>
<path class="st2" d="M149.4,346.6c-10.2,0-18.6,8.3-18.6,18.6c0,10.2,8.3,18.6,18.6,18.6s18.6-8.3,18.6-18.6
	C168,354.9,159.7,346.6,149.4,346.6z M149.4,368.7c-2,0-3.5-1.6-3.5-3.5s1.6-3.5,3.5-3.5s3.5,1.6,3.5,3.5S151.4,368.7,149.4,368.7z"
	/>
</svg>
