<?xml version="1.0" encoding="utf-8"?>
<!-- Generator: Adobe Illustrator 22.0.0, SVG Export Plug-In . SVG Version: 6.00 Build 0)  -->
<svg version="1.1" id="Vrstva_1" xmlns="http://www.w3.org/2000/svg" xmlns:xlink="http://www.w3.org/1999/xlink" x="0px" y="0px"
	 viewBox="0 0 448 512" style="enable-background:new 0 0 448 512;" xml:space="preserve">
<style type="text/css">
	.st0{fill:#00A30D;}
	.st1{fill:#C6C4C4;}
</style>
<path class="st0" d="M89.6,204.5v115.8c0,15.4-12.1,27.7-27.5,27.7C46.8,348,32,335.6,32,320.3V204.5c0-15.1,14.8-27.5,30.1-27.5
	C77.2,177,89.6,189.4,89.6,204.5z M100.4,361.5c0,16.4,13.2,29.6,29.6,29.6h19.9l0.3,61.1c0,36.9,55.2,36.6,55.2,0v-61.1h37.2v61.1
	c0,36.7,55.5,36.8,55.5,0v-61.1h20.2c16.2,0,29.4-13.2,29.4-29.6V182.1H100.4V361.5z M348.4,172.4H99.3c0-42.8,25.6-80,63.6-99.4
	l-19.1-35.3c-2.8-4.9,4.3-8,6.7-3.8l19.4,35.6c34.9-15.5,75-14.7,108.3,0L297.5,34c2.5-4.3,9.5-1.1,6.7,3.8L285.1,73
	C322.8,92.4,348.4,129.6,348.4,172.4z M177.7,116.9c0-5.7-4.6-10.5-10.5-10.5c-5.7,0-10.2,4.8-10.2,10.5s4.6,10.5,10.2,10.5
	C173.1,127.4,177.7,122.6,177.7,116.9z M291.1,116.9c0-5.7-4.6-10.5-10.2-10.5c-5.9,0-10.5,4.8-10.5,10.5s4.6,10.5,10.5,10.5
	C286.5,127.4,291.1,122.6,291.1,116.9z M385.9,177c-15.1,0-27.5,12.1-27.5,27.5v115.8c0,15.4,12.4,27.7,27.5,27.7
	c15.4,0,30.1-12.4,30.1-27.7V204.5C416,189.1,401.2,177,385.9,177z"/>
<path class="st1" d="M289.8,262.9c-0.1-19.7,8.5-34.6,26-45.6c-9.8-14.5-24.5-22.4-44-24c-18.4-1.5-38.6,11.1-46,11.1
	c-7.8,0-25.7-10.6-39.7-10.6c-29,0.5-59.8,23.9-59.8,71.6c0,14.1,2.5,28.7,7.5,43.7c6.6,19.7,30.7,68.1,55.7,67.3
	c13.1-0.3,22.3-9.6,39.4-9.6c16.5,0,25.1,9.6,39.7,9.6c25.2-0.4,47-44.4,53.3-64.2C288,295.8,289.8,263.9,289.8,262.9L289.8,262.9z
	 M260.4,174.5c14.2-17.4,12.9-33.3,12.5-39c-12.5,0.8-27,8.8-35.3,18.8c-9.1,10.6-14.4,23.8-13.3,38.7
	C237.8,194.1,250.2,186.9,260.4,174.5z"/>
</svg>
