<?xml version="1.0" encoding="utf-8"?>
<!-- Generator: Adobe Illustrator 22.0.0, SVG Export Plug-In . SVG Version: 6.00 Build 0)  -->
<svg version="1.1" id="Capa_1" xmlns="http://www.w3.org/2000/svg" xmlns:xlink="http://www.w3.org/1999/xlink" x="0px" y="0px"
	 viewBox="0 0 512 512" style="enable-background:new 0 0 512 512;" xml:space="preserve">
<style type="text/css">
	.st0{fill:#0E9347;}
	.st1{fill:#0D8944;}
	.st2{fill:#3BB54A;}
	.st3{fill:#89C763;}
	.st4{fill:#FFCA5D;}
	.st5{fill:#F6B545;}
	.st6{fill:#FFCB5B;}
	.st7{fill:#FFE27A;}
	.st8{fill:#F19920;}
	.st9{fill:#E78825;}
	.st10{fill:#FF4949;}
</style>
<path class="st0" d="M488.7,325.8H23.3C10.5,325.8,0,315.3,0,302.5v-256c0-12.8,10.5-23.3,23.3-23.3h465.5
	c12.8,0,23.3,10.5,23.3,23.3v256C512,315.3,501.5,325.8,488.7,325.8z"/>
<path class="st1" d="M430.5,232.7c-26.8,0-51.2,12.8-65.2,33.7c-11.6-5.8-24.4-10.5-39.6-10.5c-40.7,0-74.5,30.3-80.3,69.8h243.2
	c11.6,0,20.9-8.1,23.3-19.8C507.3,265.3,472.4,232.7,430.5,232.7z"/>
<path class="st2" d="M442.2,302.5H69.8c0-25.6-20.9-46.5-46.5-46.5V93.1c25.6,0,46.5-20.9,46.5-46.5h372.4
	c0,25.6,20.9,46.5,46.5,46.5V256C463.1,256,442.2,276.9,442.2,302.5z"/>
<g>
	<path class="st0" d="M430.5,232.7c-26.8,0-51.2,12.8-65.2,33.7c-11.6-5.8-24.4-10.5-39.6-10.5c-32.6,0-60.5,18.6-73.3,46.5h189.7
		c0-25.6,19.8-45.4,45.4-46.5C472.4,242,452.7,232.7,430.5,232.7z"/>
	<ellipse class="st0" cx="256" cy="174.5" rx="93.1" ry="104.7"/>
	<circle class="st0" cx="116.4" cy="174.5" r="23.3"/>
	<circle class="st0" cx="395.6" cy="174.5" r="23.3"/>
</g>
<path class="st3" d="M267.6,162.9h-23.3c-7,0-11.6-4.7-11.6-11.6c0-7,4.7-11.6,11.6-11.6h34.9c7,0,11.6-4.7,11.6-11.6
	c0-7-4.7-11.6-11.6-11.6h-11.6c0-7-4.7-11.6-11.6-11.6c-7,0-11.6,4.7-11.6,11.6c-19.8,0-34.9,15.1-34.9,34.9s15.1,34.9,34.9,34.9
	h23.3c7,0,11.6,4.7,11.6,11.6c0,7-4.7,11.6-11.6,11.6h-34.9c-7,0-11.6,4.7-11.6,11.6c0,7,4.7,11.6,11.6,11.6h11.6
	c0,7,4.7,11.6,11.6,11.6c7,0,11.6-4.7,11.6-11.6c19.8,0,34.9-15.1,34.9-34.9S287.4,162.9,267.6,162.9z"/>
<circle class="st4" cx="302.5" cy="337.5" r="81.5"/>
<circle class="st5" cx="407.3" cy="314.2" r="81.5"/>
<path class="st6" d="M407.3,232.7c-45.4,0-81.5,36.1-81.5,81.5s36.1,81.5,81.5,81.5s81.5-36.1,81.5-81.5S452.7,232.7,407.3,232.7z
	 M407.3,372.4c-32.6,0-58.2-25.6-58.2-58.2s25.6-58.2,58.2-58.2s58.2,25.6,58.2,58.2S439.9,372.4,407.3,372.4z"/>
<path class="st5" d="M407.3,394.5L407.3,394.5c45.4,1.2,81.5-36.1,81.5-80.3h-1.2c-5.8,0-10.5,4.7-11.6,10.5
	c-2.3,16.3-10.5,31.4-22.1,41.9c-9.3,9.3-22.1,15.1-36.1,17.5C411.9,384,407.3,388.7,407.3,394.5z"/>
<path class="st7" d="M407.3,233.9L407.3,233.9c-45.4-1.2-81.5,36.1-81.5,80.3h1.2c5.8,0,10.5-4.7,11.6-10.5
	c2.3-16.3,10.5-31.4,22.1-41.9c9.3-9.3,22.1-15.1,36.1-17.5C402.6,244.4,407.3,239.7,407.3,233.9z"/>
<path class="st8" d="M357.2,322.3c0-32.6,25.6-58.2,58.2-58.2c14,0,26.8,4.7,37.2,14c-11.6-14-26.8-22.1-45.4-22.1
	c-32.6,0-58.2,25.6-58.2,58.2c0,18.6,8.1,33.7,20.9,44.2C361.9,349.1,357.2,336.3,357.2,322.3z"/>
<path class="st6" d="M442.2,350.3c-1.2,0-2.3,0-3.5-1.2c-2.3-2.3-2.3-5.8,0-8.1c7-7,10.5-17.5,10.5-26.8c0-3.5,2.3-5.8,5.8-5.8
	s5.8,2.3,5.8,5.8c0,12.8-4.7,25.6-12.8,34.9C445.7,350.3,443.3,350.3,442.2,350.3z"/>
<g>
	<path class="st8" d="M407.3,349.1c-7,0-11.6-4.7-11.6-11.6v-46.5c0-7,4.7-11.6,11.6-11.6s11.6,4.7,11.6,11.6v46.5
		C418.9,344.4,414.3,349.1,407.3,349.1z"/>
	<path class="st8" d="M450.3,382.8c-8.1-29.1-29.1-52.4-55.9-62.8c-4.7-26.8-22.1-50-44.2-64c-14,15.1-23.3,34.9-23.3,57
		c0,45.4,36.1,81.5,81.5,81.5C423.6,395.6,437.5,391,450.3,382.8z"/>
</g>
<g>
	<path class="st9" d="M370,358.4c-8.1-10.5-14-23.3-14-37.2c0-16.3,7-31.4,18.6-41.9c-2.3-3.5-4.7-5.8-7-8.1
		c-11.6,10.5-18.6,25.6-18.6,43.1C349.1,332.8,357.2,347.9,370,358.4z"/>
	<path class="st9" d="M395.6,321.2v16.3c0,7,4.7,11.6,11.6,11.6s11.6-4.7,11.6-11.6v-2.3C411.9,329.3,403.8,324.7,395.6,321.2z"/>
</g>
<path class="st5" d="M450.3,382.8c-2.3-8.1-4.7-15.1-9.3-22.1c-9.3,7-20.9,11.6-33.7,11.6c-32.6,0-58.2-25.6-58.2-58.2
	c0-17.5,7-32.6,18.6-43.1c-5.8-5.8-11.6-10.5-18.6-14c-14,15.1-23.3,34.9-23.3,57c0,45.4,36.1,81.5,81.5,81.5
	C423.6,395.6,437.5,391,450.3,382.8z"/>
<path class="st8" d="M446.8,372.4c-8.1,5.8-18.6,9.3-29.1,11.6c-5.8,1.2-10.5,5.8-10.5,11.6l0,0c16.3,0,30.3-4.7,43.1-12.8
	C449.2,379.3,448,375.9,446.8,372.4z"/>
<path class="st6" d="M349.1,257.2c-14,15.1-23.3,34.9-23.3,57h1.2c5.8,0,10.5-4.7,11.6-10.5c2.3-16.3,10.5-30.3,20.9-40.7
	C356.1,261.8,352.6,259.5,349.1,257.2z"/>
<circle class="st5" cx="302.5" cy="337.5" r="81.5"/>
<path class="st8" d="M290.9,395.6c0,8.1,1.2,15.1,3.5,23.3c2.3,0,5.8,0,8.1,0c45.4,0,81.5-36.1,81.5-81.5c0-8.1-1.2-15.1-3.5-23.3
	c-2.3,0-5.8,0-8.1,0C327,314.2,290.9,350.3,290.9,395.6z"/>
<path class="st6" d="M302.5,256c-45.4,0-81.5,36.1-81.5,81.5s36.1,81.5,81.5,81.5s81.5-36.1,81.5-81.5S347.9,256,302.5,256z
	 M302.5,395.6c-32.6,0-58.2-25.6-58.2-58.2s25.6-58.2,58.2-58.2s58.2,25.6,58.2,58.2S335.1,395.6,302.5,395.6z"/>
<path class="st5" d="M302.5,417.7L302.5,417.7c45.4,1.2,81.5-36.1,81.5-80.3h-1.2c-5.8,0-10.5,4.7-11.6,10.5
	c-2.3,16.3-10.5,31.4-22.1,41.9c-9.3,9.3-22.1,15.1-36.1,17.5C307.2,407.3,302.5,411.9,302.5,417.7z"/>
<path class="st7" d="M302.5,257.2L302.5,257.2c-45.4-1.2-81.5,36.1-81.5,80.3h1.2c5.8,0,10.5-4.7,11.6-10.5
	c2.3-16.3,10.5-31.4,22.1-41.9c9.3-9.3,22.1-15.1,36.1-17.5C297.9,267.6,302.5,263,302.5,257.2z"/>
<path class="st8" d="M252.5,345.6c0-32.6,25.6-58.2,58.2-58.2c14,0,26.8,4.7,37.2,14c-11.6-14-26.8-22.1-45.4-22.1
	c-32.6,0-58.2,25.6-58.2,58.2c0,18.6,8.1,33.7,20.9,44.2C257.2,372.4,252.5,359.6,252.5,345.6z"/>
<path class="st6" d="M337.5,373.5c-1.2,0-2.3,0-3.5-1.2c-2.3-2.3-2.3-5.8,0-8.1c7-7,10.5-17.5,10.5-26.8c0-3.5,2.3-5.8,5.8-5.8
	s5.8,2.3,5.8,5.8c0,12.8-4.7,25.6-12.8,34.9C340.9,373.5,338.6,373.5,337.5,373.5z"/>
<path class="st8" d="M302.5,372.4c-7,0-11.6-4.7-11.6-11.6v-46.5c0-7,4.7-11.6,11.6-11.6c7,0,11.6,4.7,11.6,11.6v46.5
	C314.2,367.7,309.5,372.4,302.5,372.4z"/>
<g>
	<path class="st5" d="M356.1,315.3c2.3,7,4.7,14,4.7,22.1c0,32.6-25.6,58.2-58.2,58.2c-3.5,0-8.1,0-11.6-1.2v1.2
		c0,8.1,1.2,15.1,3.5,23.3c2.3,0,5.8,0,8.1,0c45.4,0,81.5-36.1,81.5-81.5c0-8.1-1.2-15.1-3.5-23.3c-2.3,0-5.8,0-8.1,0
		C366.5,314.2,361.9,314.2,356.1,315.3z"/>
	<circle class="st5" cx="360.7" cy="407.3" r="81.5"/>
</g>
<path class="st6" d="M360.7,325.8c-45.4,0-81.5,36.1-81.5,81.5s36.1,81.5,81.5,81.5s81.5-36.1,81.5-81.5S406.1,325.8,360.7,325.8z
	 M360.7,465.5c-32.6,0-58.2-25.6-58.2-58.2s25.6-58.2,58.2-58.2s58.2,25.6,58.2,58.2S393.3,465.5,360.7,465.5z"/>
<path class="st5" d="M360.7,487.6L360.7,487.6c45.4,1.2,81.5-36.1,81.5-80.3H441c-5.8,0-10.5,4.7-11.6,10.5
	c-2.3,16.3-10.5,31.4-22.1,41.9c-9.3,9.3-22.1,15.1-36.1,17.5C365.4,477.1,360.7,481.7,360.7,487.6z"/>
<path class="st7" d="M360.7,327L360.7,327c-45.4-1.2-81.5,36.1-81.5,80.3h1.2c5.8,0,10.5-4.7,11.6-10.5
	c2.3-16.3,10.5-31.4,22.1-41.9c9.3-9.3,22.1-15.1,36.1-17.5C356.1,337.5,360.7,332.8,360.7,327z"/>
<path class="st8" d="M310.7,415.4c0-32.6,25.6-58.2,58.2-58.2c14,0,26.8,4.7,37.2,14c-11.6-14-26.8-22.1-45.4-22.1
	c-32.6,0-58.2,25.6-58.2,58.2c0,18.6,8.1,33.7,20.9,44.2C315.3,442.2,310.7,429.4,310.7,415.4z"/>
<path class="st6" d="M395.6,443.3c-1.2,0-2.3,0-3.5-1.2c-2.3-2.3-2.3-5.8,0-8.1c7-7,10.5-17.5,10.5-26.8c0-3.5,2.3-5.8,5.8-5.8
	s5.8,2.3,5.8,5.8c0,12.8-4.7,25.6-12.8,34.9C399.1,443.3,396.8,443.3,395.6,443.3z"/>
<path class="st8" d="M360.7,442.2c-7,0-11.6-4.7-11.6-11.6V384c0-7,4.7-11.6,11.6-11.6c7,0,11.6,4.7,11.6,11.6v46.5
	C372.4,437.5,367.7,442.2,360.7,442.2z"/>
<path class="st10" d="M442.2,52.2c-49.5-49.5-115-75.4-180.4-75.4S130.9,2.6,81.4,52.2C-19.3,152.9-19.3,312.3,81.4,413
	c49.8,49.8,115,75.7,180.4,75.7s130.6-25.9,180.4-75.7C542.9,312.3,542.9,152.9,442.2,52.2z M123.7,94.5
	c38.1-37.8,88-58.3,138.1-58.3c39.3,0,78.9,13,113.2,37.3L261.8,186.6L102.7,345.7C46.4,266.1,54.6,163.9,123.7,94.5z M399.9,370.7
	c-38.1,37.8-87.9,58.3-138.1,58.3c-39.3,0-78.9-13-113.2-37.3l272.3-272.3C477.3,199,469,301.3,399.9,370.7z"/>
</svg>
