<?xml version="1.0" encoding="utf-8"?>
<!-- Generator: Adobe Illustrator 22.0.0, SVG Export Plug-In . SVG Version: 6.00 Build 0)  -->
<svg version="1.1" id="Capa_1" xmlns="http://www.w3.org/2000/svg" xmlns:xlink="http://www.w3.org/1999/xlink" x="0px" y="0px"
	 viewBox="0 0 512 512" style="enable-background:new 0 0 512 512;" xml:space="preserve">
<style type="text/css">
	.st0{fill:#0E9347;}
	.st1{fill:#0D8944;}
	.st2{fill:#3BB54A;}
	.st3{fill:#89C763;}
	.st4{fill:#FFCA5D;}
	.st5{fill:#F6B545;}
	.st6{fill:#FFCB5B;}
	.st7{fill:#FFE27A;}
	.st8{fill:#F19920;}
	.st9{fill:#E78825;}
</style>
<path class="st0" d="M448.9,331.4H67.1c-10.5,0-19.1-8.3-19.1-18.3V111.3C48,101.3,56.6,93,67.1,93h381.8c10.5,0,19.1,8.3,19.1,18.3
	V313C468,323.1,459.4,331.4,448.9,331.4z"/>
<path class="st1" d="M401.2,189.6c-22,0-42,10.1-53.5,26.6c-9.5-4.6-20-8.3-32.5-8.3c-33.4,0-61.1,23.8-65.9,55h199.5
	c9.5,0,17.2-6.4,19.1-15.6C464.2,215.3,435.5,189.6,401.2,189.6z"/>
<path class="st2" d="M410.7,318H105.3c0-20.2-17.2-36.7-38.2-36.7V153c21,0,38.2-16.5,38.2-36.7h305.5c0,20.2,17.2,36.7,38.2,36.7
	v128.4C427.9,281.3,410.7,297.8,410.7,318z"/>
<g>
	<path class="st0" d="M392.1,263c-22,0-42,10.1-53.5,26.6c-9.5-4.6-20-8.3-32.5-8.3c-26.7,0-49.6,14.7-60.1,36.7h155.6
		c0-20.2,16.2-35.8,37.2-36.7C426.5,270.3,410.2,263,392.1,263z"/>
	<ellipse class="st0" cx="248.9" cy="217.1" rx="76.4" ry="82.5"/>
	<ellipse class="st0" cx="134.4" cy="217.1" rx="19.1" ry="18.3"/>
	<ellipse class="st0" cx="363.5" cy="217.1" rx="19.1" ry="18.3"/>
</g>
<path class="st3" d="M259,199.7h-19.1c-5.7,0-9.5-3.7-9.5-9.2c0-5.5,3.8-9.2,9.5-9.2h28.6c5.7,0,9.5-3.7,9.5-9.2
	c0-5.5-3.8-9.2-9.5-9.2H259c0-5.5-3.8-9.2-9.5-9.2c-5.7,0-9.5,3.7-9.5,9.2c-16.2,0-28.6,11.9-28.6,27.5s12.4,27.5,28.6,27.5H259
	c5.7,0,9.5,3.7,9.5,9.2c0,5.5-3.8,9.2-9.5,9.2h-28.6c-5.7,0-9.5,3.7-9.5,9.2c0,5.5,3.8,9.2,9.5,9.2h9.5c0,5.5,3.8,9.2,9.5,9.2
	c5.7,0,9.5-3.7,9.5-9.2c16.2,0,28.6-11.9,28.6-27.5S275.2,199.7,259,199.7z"/>
<ellipse class="st4" cx="296.2" cy="272.1" rx="66.8" ry="64.2"/>
<ellipse class="st5" cx="382.1" cy="253.8" rx="66.8" ry="64.2"/>
<path class="st6" d="M382.1,189.6c-37.2,0-66.8,28.4-66.8,64.2s29.6,64.2,66.8,64.2s66.8-28.4,66.8-64.2S419.3,189.6,382.1,189.6z
	 M382.1,299.6c-26.7,0-47.7-20.2-47.7-45.8s21-45.8,47.7-45.8c26.7,0,47.7,20.2,47.7,45.8S408.8,299.6,382.1,299.6z"/>
<path class="st5" d="M382.1,317.1L382.1,317.1c37.2,0.9,66.8-28.4,66.8-63.3h-1c-4.8,0-8.6,3.7-9.5,8.3c-1.9,12.8-8.6,24.8-18.1,33
	c-7.6,7.3-18.1,11.9-29.6,13.8C385.9,308.8,382.1,312.5,382.1,317.1z"/>
<path class="st7" d="M382.1,190.5L382.1,190.5c-37.2-0.9-66.8,28.4-66.8,63.3h1c4.8,0,8.6-3.7,9.5-8.3c1.9-12.8,8.6-24.8,18.1-33
	c7.6-7.3,18.1-11.9,29.6-13.8C378.3,198.8,382.1,195.1,382.1,190.5z"/>
<path class="st8" d="M341,260.2c0-25.7,21-45.8,47.7-45.8c11.5,0,22,3.7,30.5,11c-9.5-11-22-17.4-37.2-17.4
	c-26.7,0-47.7,20.2-47.7,45.8c0,14.7,6.7,26.6,17.2,34.8C344.9,281.3,341,271.2,341,260.2z"/>
<path class="st6" d="M410.7,282.2c-1,0-1.9,0-2.9-0.9c-1.9-1.8-1.9-4.6,0-6.4c5.7-5.5,8.6-13.8,8.6-21.1c0-2.8,1.9-4.6,4.8-4.6
	s4.8,1.8,4.8,4.6c0,10.1-3.8,20.2-10.5,27.5C413.6,282.2,411.7,282.2,410.7,282.2z"/>
<g>
	<path class="st8" d="M382.1,281.3c-5.7,0-9.5-3.7-9.5-9.2v-36.7c0-5.5,3.8-9.2,9.5-9.2c5.7,0,9.5,3.7,9.5,9.2v36.7
		C391.6,277.6,387.8,281.3,382.1,281.3z"/>
	<path class="st8" d="M417.4,307.9c-6.7-22.9-23.9-41.3-45.8-49.5c-3.8-21.1-18.1-39.4-36.3-50.4c-11.5,11.9-19.1,27.5-19.1,44.9
		c0,35.8,29.6,64.2,66.8,64.2C395.5,318,406.9,314.3,417.4,307.9z"/>
</g>
<g>
	<path class="st9" d="M351.5,288.6c-6.7-8.3-11.5-18.3-11.5-29.3c0-12.8,5.7-24.8,15.3-33c-1.9-2.8-3.8-4.6-5.7-6.4
		c-9.5,8.3-15.3,20.2-15.3,33.9C334.4,268.5,341,280.4,351.5,288.6z"/>
	<path class="st9" d="M372.5,259.3v12.8c0,5.5,3.8,9.2,9.5,9.2s9.5-3.7,9.5-9.2v-1.8C385.9,265.7,379.2,262.1,372.5,259.3z"/>
</g>
<path class="st5" d="M417.4,307.9c-1.9-6.4-3.8-11.9-7.6-17.4c-7.6,5.5-17.2,9.2-27.7,9.2c-26.7,0-47.7-20.2-47.7-45.8
	c0-13.8,5.7-25.7,15.3-33.9c-4.8-4.6-9.5-8.3-15.3-11c-11.5,11.9-19.1,27.5-19.1,44.9c0,35.8,29.6,64.2,66.8,64.2
	C395.5,318,406.9,314.3,417.4,307.9z"/>
<path class="st8" d="M414.5,299.6c-6.7,4.6-15.3,7.3-23.9,9.2c-4.8,0.9-8.6,4.6-8.6,9.2l0,0c13.4,0,24.8-3.7,35.3-10.1
	C416.5,305.1,415.5,302.4,414.5,299.6z"/>
<path class="st6" d="M334.4,208.9c-11.5,11.9-19.1,27.5-19.1,44.9h1c4.8,0,8.6-3.7,9.5-8.3c1.9-12.8,8.6-23.8,17.2-32.1
	C340.1,212.5,337.2,210.7,334.4,208.9z"/>
<ellipse class="st5" cx="296.2" cy="272.1" rx="66.8" ry="64.2"/>
<path class="st8" d="M286.6,318c0,6.4,1,11.9,2.9,18.3c1.9,0,4.8,0,6.7,0c37.2,0,66.8-28.4,66.8-64.2c0-6.4-1-11.9-2.9-18.3
	c-1.9,0-4.8,0-6.7,0C316.2,253.8,286.6,282.2,286.6,318z"/>
<path class="st6" d="M296.2,208c-37.2,0-66.8,28.4-66.8,64.2s29.6,64.2,66.8,64.2s66.8-28.4,66.8-64.2S333.4,208,296.2,208z
	 M296.2,318c-26.7,0-47.7-20.2-47.7-45.8c0-25.7,21-45.8,47.7-45.8c26.7,0,47.7,20.2,47.7,45.8C343.9,297.8,322.9,318,296.2,318z"/>
<path class="st5" d="M296.2,335.4L296.2,335.4c37.2,0.9,66.8-28.4,66.8-63.3h-1c-4.8,0-8.6,3.7-9.5,8.3c-1.9,12.8-8.6,24.8-18.1,33
	c-7.6,7.3-18.1,11.9-29.6,13.8C300,327.2,296.2,330.8,296.2,335.4z"/>
<path class="st7" d="M296.2,208.9L296.2,208.9c-37.2-0.9-66.8,28.4-66.8,63.3h1c4.8,0,8.6-3.7,9.5-8.3c1.9-12.8,8.6-24.8,18.1-33
	c7.6-7.3,18.1-11.9,29.6-13.8C292.4,217.1,296.2,213.5,296.2,208.9z"/>
<path class="st8" d="M255.1,278.6c0-25.7,21-45.8,47.7-45.8c11.5,0,22,3.7,30.5,11c-9.5-11-22-17.4-37.2-17.4
	c-26.7,0-47.7,20.2-47.7,45.8c0,14.7,6.7,26.6,17.2,34.8C259,299.6,255.1,289.6,255.1,278.6z"/>
<path class="st6" d="M324.8,300.6c-1,0-1.9,0-2.9-0.9c-1.9-1.8-1.9-4.6,0-6.4c5.7-5.5,8.6-13.8,8.6-21.1c0-2.8,1.9-4.6,4.8-4.6
	s4.8,1.8,4.8,4.6c0,10.1-3.8,20.2-10.5,27.5C327.7,300.6,325.8,300.6,324.8,300.6z"/>
<path class="st8" d="M296.2,299.6c-5.7,0-9.5-3.7-9.5-9.2v-36.7c0-5.5,3.8-9.2,9.5-9.2c5.7,0,9.5,3.7,9.5,9.2v36.7
	C305.7,296,301.9,299.6,296.2,299.6z"/>
<g>
	<path class="st5" d="M340.1,254.7c1.9,5.5,3.8,11,3.8,17.4c0,25.7-21,45.8-47.7,45.8c-2.9,0-6.7,0-9.5-0.9v0.9
		c0,6.4,1,11.9,2.9,18.3c1.9,0,4.8,0,6.7,0c37.2,0,66.8-28.4,66.8-64.2c0-6.4-1-11.9-2.9-18.3c-1.9,0-4.8,0-6.7,0
		C348.7,253.8,344.9,253.8,340.1,254.7z"/>
	<ellipse class="st5" cx="343.9" cy="327.2" rx="66.8" ry="64.2"/>
</g>
<path class="st6" d="M343.9,263c-37.2,0-66.8,28.4-66.8,64.2s29.6,64.2,66.8,64.2s66.8-28.4,66.8-64.2S381.1,263,343.9,263z
	 M343.9,373c-26.7,0-47.7-20.2-47.7-45.8s21-45.8,47.7-45.8c26.7,0,47.7,20.2,47.7,45.8S370.6,373,343.9,373z"/>
<path class="st5" d="M343.9,390.4L343.9,390.4c37.2,0.9,66.8-28.4,66.8-63.3h-1c-4.8,0-8.6,3.7-9.5,8.3c-1.9,12.8-8.6,24.8-18.1,33
	c-7.6,7.3-18.1,11.9-29.6,13.8C347.7,382.2,343.9,385.8,343.9,390.4z"/>
<path class="st7" d="M343.9,263.9L343.9,263.9c-37.2-0.9-66.8,28.4-66.8,63.3h1c4.8,0,8.6-3.7,9.5-8.3c1.9-12.8,8.6-24.8,18.1-33
	c7.6-7.3,18.1-11.9,29.6-13.8C340.1,272.1,343.9,268.5,343.9,263.9z"/>
<path class="st8" d="M302.9,333.6c0-25.7,21-45.8,47.7-45.8c11.5,0,22,3.7,30.5,11c-9.5-11-22-17.4-37.2-17.4
	c-26.7,0-47.7,20.2-47.7,45.8c0,14.7,6.7,26.6,17.2,34.8C306.7,354.7,302.9,344.6,302.9,333.6z"/>
<path class="st6" d="M372.5,355.6c-1,0-1.9,0-2.9-0.9c-1.9-1.8-1.9-4.6,0-6.4c5.7-5.5,8.6-13.8,8.6-21.1c0-2.8,1.9-4.6,4.8-4.6
	s4.8,1.8,4.8,4.6c0,10.1-3.8,20.2-10.5,27.5C375.4,355.6,373.5,355.6,372.5,355.6z"/>
<path class="st8" d="M343.9,354.7c-5.7,0-9.5-3.7-9.5-9.2v-36.7c0-5.5,3.8-9.2,9.5-9.2c5.7,0,9.5,3.7,9.5,9.2v36.7
	C353.5,351,349.6,354.7,343.9,354.7z"/>
</svg>
