<?xml version="1.0" encoding="utf-8"?>
<!-- Generator: Adobe Illustrator 22.0.0, SVG Export Plug-In . SVG Version: 6.00 Build 0)  -->
<svg version="1.1" id="Vrstva_1" xmlns="http://www.w3.org/2000/svg" xmlns:xlink="http://www.w3.org/1999/xlink" x="0px" y="0px"
	 viewBox="0 0 512 512" style="enable-background:new 0 0 512 512;" xml:space="preserve">
<style type="text/css">
	.st0{fill:#A50707;}
	.st1{fill:#FFFFFF;stroke:#F9F4F4;stroke-width:19;stroke-miterlimit:10;}
	.st2{fill:none;stroke:#F9F4F4;stroke-width:19;stroke-miterlimit:10;}
	.st3{fill:none;stroke:#FFFFFF;stroke-width:16;stroke-linecap:round;stroke-miterlimit:10;}
</style>
<path class="st0" d="M436.8,74.6C388.4,26.5,324.3,0,256,0h-0.4c-34.8,0-68.6,7-100.4,20.7c-30.7,13.2-58.2,32-81.7,56
	C25.1,125.9-1,190.9,0,259.5c0.6,41.7,11.6,83,31.7,119.4c0.4,0.7,0.5,1.4,0.2,2.1L2.6,469.2c-3.8,11.3-1.1,23.8,7.1,32.5
	c6.2,6.7,14.9,10.3,23.7,10.3c2.8,0,5.5-0.4,8.3-1.1l99.5-26.1c0.6-0.2,1.2-0.1,1.8,0.2c35.4,17.4,73.4,26.2,113,26.2
	c68.3,0,132.7-26.7,181.1-75.3c48.4-48.4,75-112.6,74.9-180.7C511.9,187,485.2,122.8,436.8,74.6z"/>
<path class="st1" d="M407.9,110.2"/>
<path class="st1" d="M104.1,328.8"/>
<path class="st2" d="M390.6,461.8"/>
<path class="st2" d="M427,115"/>
<path class="st2" d="M83.6,438.8"/>
<path class="st2" d="M120,92"/>
<line class="st3" x1="142.8" y1="136.7" x2="369.2" y2="360.7"/>
<line class="st3" x1="377.6" y1="145.9" x2="134.4" y2="351.5"/>
</svg>
