<?xml version="1.0" encoding="utf-8"?>
<!-- Generator: Adobe Illustrator 22.0.0, SVG Export Plug-In . SVG Version: 6.00 Build 0)  -->
<svg version="1.1" id="Capa_1" xmlns="http://www.w3.org/2000/svg" xmlns:xlink="http://www.w3.org/1999/xlink" x="0px" y="0px"
	 viewBox="0 0 144 152" style="enable-background:new 0 0 144 152;" xml:space="preserve">
<style type="text/css">
	.st0{fill:#556080;}
	.st1{fill:#7383BF;}
</style>
<path class="st0" d="M55.5,118.5L73.8,108c-0.1-0.1,0-0.1,0.2-0.1l9-5.2c3.6-2.1,5.8-6,5.8-10.4l0-11.8c0,0-3.3-4.1-6.5-10.7l0,0
	l0,0C81.8,68.9,81.5,68,81,67c-0.1-0.1-0.1-0.3-0.2-0.4c-0.4-1-0.8-2-1.2-3.1c0-0.1-0.1-0.1-0.1-0.2c-0.3-0.9-0.6-1.9-1-2.9
	c-0.1-0.3-0.2-0.5-0.3-0.8c-0.3-1.1-0.6-2.2-0.9-3.3c-2.6-1.7-4.3-4.7-4.3-8.1l0-12.9c0-2.9,1.2-5.4,3.1-7.2L76.1,9.9
	C71.7,6.3,64.9,3,54.4,3C24.9,3.1,23.6,29,23.6,29l0.1,16.2c-1.6,1.6-3.1,3.7-3.1,6.2l0,11.2c0,2.9,1.5,5.5,3.7,7
	c2.7,12.1,11.7,20.8,11.7,20.8l0,10.2c0,3.7-1.9,7.2-5,9l-20.6,13.6c-6.9,3.9-11.1,11.5-11.1,19.7l0,9.1l43.2-0.2l0-10.5
	C42.7,131.9,47.6,123.1,55.5,118.5z"/>
<path class="st1" d="M129.7,121.6l-30.8-13.4c-4-1.7-6.5-5.3-6.5-9.2V88.4c0.8-0.8,1.9-2,2.9-3.3c4.2-5.1,7.4-10.9,9.6-16.8
	c4-1,6.9-4.2,6.9-8V49.1c0-2.4-1.3-4.7-3.2-6.2V26.6c0,0,3.8-25.3-35.5-25.3S37.7,26.6,37.7,26.6v16.3c-1.9,1.5-3.2,3.7-3.2,6.2
	v11.3c0,3,1.8,5.6,4.5,7.1c3.2,12.2,11.7,21,11.7,21v10.3c0,3.7-2.4,7.2-6.1,9l-28.9,13.7c-8.4,4-13.5,11.6-13.5,19.8v9.1H144v-8.6
	C144,133.3,138.5,125.4,129.7,121.6z"/>
</svg>
