<?xml version="1.0" encoding="utf-8"?>
<!-- Generator: Adobe Illustrator 22.0.0, SVG Export Plug-In . SVG Version: 6.00 Build 0)  -->
<svg version="1.1" id="Capa_1" xmlns="http://www.w3.org/2000/svg" xmlns:xlink="http://www.w3.org/1999/xlink" x="0px" y="0px"
	 viewBox="0 0 58 58" style="enable-background:new 0 0 58 58;" xml:space="preserve">
<style type="text/css">
	.st0{fill:#556080;}
	.st1{fill:#7383BF;}
</style>
<path class="st0" d="M89.1,4.5l29.1-16.1c-0.2-0.2,0-0.2,0.3-0.2l14.3-7.9c5.7-3.2,9.3-9.2,9.3-15.9v-18.1c0,0-5.2-6.3-10.3-16.5
	l0,0c0,0,0,0,0,0c-0.7-1.3-1.3-2.7-2-4.2c-0.1-0.2-0.2-0.4-0.3-0.6c-0.7-1.5-1.3-3.1-1.9-4.7c0-0.1-0.1-0.2-0.1-0.3
	c-0.5-1.4-1-2.9-1.5-4.4c-0.1-0.4-0.3-0.8-0.4-1.2c-0.5-1.7-1-3.4-1.4-5.1c-4.1-2.6-6.8-7.2-6.8-12.5V-123c0-4.4,1.9-8.3,4.9-11v-28
	c-6.9-5.4-17.7-10.6-34.3-10.6c-46.9,0-49,39.7-49,39.7v24.8c-2.6,2.4-4.9,5.7-4.9,9.5v17.1c0,4.5,2.3,8.5,5.9,10.8
	c4.2,18.6,18.4,32,18.4,32V-23c0,5.7-3.1,11-8,13.7L17.7,11.5C6.8,17.5,0,29.1,0,41.6v13.9h68.6V39.4C68.6,24.9,76.5,11.5,89.1,4.5z
	"/>
<path class="st1" d="M197.4,10.8l-44.3-20.9c-5.7-2.7-9.3-8.2-9.3-14.3v-16.4c1.2-1.3,2.7-3.1,4.2-5.1c6-8,10.6-16.9,13.8-26.2
	c5.7-1.6,9.9-6.6,9.9-12.5V-102c0-3.8-1.8-7.3-4.6-9.7V-137c0,0,5.5-39.4-51-39.4c-56.5,0-51,39.4-51,39.4v25.3
	c-2.8,2.4-4.6,5.8-4.6,9.7v17.5c0,4.6,2.6,8.7,6.4,11c4.6,19,16.8,32.7,16.8,32.7v16c0,5.8-3.4,11.2-8.8,14L33.4,10.5
	C21.4,16.7,14,28.5,14,41.3v14.2h203.9V42.2C217.9,28.9,210,16.7,197.4,10.8z"/>
</svg>
